<svg width="1512" height="114" viewBox="0 0 1512 114" fill="none" xmlns="http://www.w3.org/2000/svg">
<rect width="1512" height="114" fill="#FF4575"/>
<path d="M18.5722 58.3503H27.6335V61.1364H18.5722V58.3503ZM18.8326 66.1618H29.1177V69H15.4476V50.7732H28.7532V53.6114H18.8326V66.1618ZM36.748 69.1823C35.5849 69.1823 34.4653 69.0347 33.389 68.7396C32.3301 68.4272 31.4882 68.0539 30.8633 67.62L32.1131 65.1463C32.7381 65.5456 33.4845 65.8754 34.3524 66.1358C35.2204 66.3962 36.0883 66.5264 36.9563 66.5264C37.9804 66.5264 38.7182 66.3875 39.1695 66.1097C39.6382 65.832 39.8726 65.4588 39.8726 64.9901C39.8726 64.6082 39.7163 64.3218 39.4039 64.1308C39.0914 63.9225 38.6835 63.7663 38.1801 63.6621C37.6767 63.558 37.1125 63.4625 36.4876 63.3757C35.88 63.2889 35.2638 63.1761 34.6389 63.0372C34.0313 62.881 33.4758 62.664 32.9724 62.3863C32.469 62.0912 32.0611 61.7006 31.7486 61.2145C31.4361 60.7285 31.2799 60.0862 31.2799 59.2877C31.2799 58.4024 31.5316 57.6386 32.035 56.9963C32.5384 56.3367 33.2415 55.8333 34.1441 55.4861C35.0641 55.1216 36.1491 54.9393 37.3989 54.9393C38.3363 54.9393 39.2823 55.0435 40.2371 55.2518C41.1918 55.4601 41.9817 55.7552 42.6066 56.1371L41.3567 58.6107C40.6971 58.2115 40.0288 57.9424 39.3518 57.8035C38.6921 57.6473 38.0325 57.5692 37.3729 57.5692C36.3834 57.5692 35.6457 57.7167 35.1596 58.0118C34.6909 58.3069 34.4566 58.6802 34.4566 59.1315C34.4566 59.5481 34.6128 59.8606 34.9253 60.0689C35.2377 60.2772 35.6457 60.4421 36.1491 60.5636C36.6525 60.6851 37.208 60.7893 37.8155 60.876C38.4404 60.9455 39.0567 61.0583 39.6642 61.2145C40.2718 61.3708 40.8273 61.5878 41.3307 61.8655C41.8515 62.1259 42.2681 62.4991 42.5805 62.9852C42.893 63.4712 43.0492 64.1048 43.0492 64.8859C43.0492 65.7539 42.7888 66.509 42.2681 67.1513C41.7647 67.7936 41.0443 68.297 40.1069 68.6615C39.1695 69.0087 38.0499 69.1823 36.748 69.1823ZM51.0859 69.1823C49.5583 69.1823 48.3779 68.7917 47.5447 68.0105C46.7115 67.212 46.2949 66.0403 46.2949 64.4954V52.023H49.5496V64.4173C49.5496 65.0769 49.7146 65.589 50.0444 65.9535C50.3916 66.3181 50.8689 66.5003 51.4765 66.5003C52.2056 66.5003 52.8131 66.3094 53.2992 65.9275L54.2105 68.2449C53.8286 68.5573 53.3599 68.7917 52.8044 68.9479C52.249 69.1042 51.6761 69.1823 51.0859 69.1823ZM44.0035 57.8035V55.1997H53.2731V57.8035H44.0035ZM62.9659 69.1823C61.4209 69.1823 60.067 68.8785 58.9039 68.2709C57.7582 67.646 56.8642 66.7954 56.222 65.7192C55.597 64.6429 55.2846 63.4191 55.2846 62.0478C55.2846 60.6591 55.5884 59.4353 56.1959 58.3764C56.8208 57.3001 57.6714 56.4582 58.7477 55.8507C59.8413 55.2431 61.0824 54.9393 62.4712 54.9393C63.8251 54.9393 65.0316 55.2344 66.0905 55.8246C67.1494 56.4148 67.9826 57.248 68.5902 58.3243C69.1977 59.4005 69.5015 60.6677 69.5015 62.1259C69.5015 62.2648 69.4928 62.421 69.4755 62.5946C69.4755 62.7682 69.4668 62.9331 69.4494 63.0893H57.8624V60.9281H67.7309L66.455 61.6051C66.4724 60.8066 66.3075 60.1036 65.9603 59.496C65.6131 58.8885 65.1357 58.4111 64.5282 58.0639C63.938 57.7167 63.2523 57.5431 62.4712 57.5431C61.6726 57.5431 60.9696 57.7167 60.3621 58.0639C59.7719 58.4111 59.3032 58.8971 58.956 59.5221C58.6262 60.1296 58.4613 60.85 58.4613 61.6832V62.204C58.4613 63.0372 58.6522 63.775 59.0341 64.4173C59.416 65.0595 59.9541 65.5543 60.6485 65.9014C61.3428 66.2486 62.1413 66.4222 63.044 66.4222C63.8251 66.4222 64.5282 66.3007 65.1531 66.0577C65.778 65.8146 66.3335 65.4328 66.8196 64.912L68.5641 66.9169C67.9392 67.646 67.1494 68.2102 66.1946 68.6094C65.2573 68.9913 64.181 69.1823 62.9659 69.1823ZM73.0706 69V54.3144C73.0706 52.8562 73.4959 51.6932 74.3465 50.8253C75.2144 49.94 76.4469 49.4973 78.0439 49.4973C78.6167 49.4973 79.1549 49.5581 79.6583 49.6796C80.179 49.8011 80.613 49.992 80.9602 50.2524L80.0749 52.7C79.8319 52.5091 79.5541 52.3702 79.2417 52.2834C78.9292 52.1793 78.6081 52.1272 78.2782 52.1272C77.6012 52.1272 77.0892 52.3181 76.742 52.7C76.3948 53.0646 76.2212 53.62 76.2212 54.3665V55.9288L76.3254 57.3869V69H73.0706ZM70.7792 57.8035V55.1997H80.0488V57.8035H70.7792ZM90.552 69V66.1879L90.3698 65.589V60.6677C90.3698 59.713 90.0834 58.9753 89.5105 58.4545C88.9377 57.9164 88.0697 57.6473 86.9067 57.6473C86.1255 57.6473 85.3531 57.7688 84.5893 58.0118C83.8428 58.2549 83.2092 58.5934 82.6885 59.0273L81.4126 56.6578C82.159 56.085 83.0443 55.6597 84.0685 55.382C85.11 55.0869 86.1863 54.9393 87.2973 54.9393C89.3109 54.9393 90.8645 55.4254 91.9581 56.3975C93.0691 57.3522 93.6246 58.8364 93.6246 60.85V69H90.552ZM86.1776 69.1823C85.1361 69.1823 84.2247 69.0087 83.4436 68.6615C82.6624 68.297 82.0549 67.8022 81.6209 67.1773C81.2043 66.535 80.996 65.8146 80.996 65.0161C80.996 64.235 81.1783 63.532 81.5428 62.907C81.9247 62.2821 82.5409 61.7874 83.3915 61.4229C84.2421 61.0583 85.3704 60.876 86.7765 60.876H90.8124V63.0372H87.0108C85.8999 63.0372 85.1534 63.2195 84.7715 63.584C84.3896 63.9312 84.1987 64.3652 84.1987 64.8859C84.1987 65.4761 84.433 65.9448 84.9017 66.292C85.3704 66.6392 86.0214 66.8128 86.8546 66.8128C87.6531 66.8128 88.3648 66.6305 88.9897 66.266C89.632 65.9014 90.092 65.3633 90.3698 64.6516L90.9166 66.6045C90.6041 67.4203 90.04 68.0539 89.2241 68.5053C88.4256 68.9566 87.4101 69.1823 86.1776 69.1823ZM105.691 54.9393C106.802 54.9393 107.792 55.1563 108.66 55.5903C109.545 56.0242 110.239 56.6926 110.743 57.5952C111.246 58.4805 111.498 59.6262 111.498 61.0323V69H108.243V61.4489C108.243 60.2164 107.948 59.2964 107.358 58.6888C106.785 58.0813 105.978 57.7775 104.936 57.7775C104.172 57.7775 103.495 57.9337 102.905 58.2462C102.315 58.5586 101.855 59.0273 101.525 59.6522C101.213 60.2598 101.056 61.0323 101.056 61.9697V69H97.8017V55.0955H100.9V58.8451L100.353 57.6994C100.839 56.8141 101.543 56.1371 102.463 55.6684C103.4 55.1823 104.476 54.9393 105.691 54.9393ZM123.516 54.9393C124.627 54.9393 125.617 55.1563 126.485 55.5903C127.37 56.0242 128.064 56.6926 128.568 57.5952C129.071 58.4805 129.323 59.6262 129.323 61.0323V69H126.068V61.4489C126.068 60.2164 125.773 59.2964 125.183 58.6888C124.61 58.0813 123.803 57.7775 122.761 57.7775C121.997 57.7775 121.32 57.9337 120.73 58.2462C120.14 58.5586 119.68 59.0273 119.35 59.6522C119.038 60.2598 118.882 61.0323 118.882 61.9697V69H115.627V55.0955H118.725V58.8451L118.178 57.6994C118.665 56.8141 119.368 56.1371 120.288 55.6684C121.225 55.1823 122.301 54.9393 123.516 54.9393ZM134.343 74.2337C133.666 74.2337 132.989 74.1209 132.312 73.8952C131.635 73.6695 131.071 73.3571 130.62 72.9578L131.922 70.5623C132.251 70.8574 132.625 71.0917 133.041 71.2653C133.458 71.4389 133.883 71.5257 134.317 71.5257C134.907 71.5257 135.385 71.3782 135.749 71.0831C136.114 70.788 136.452 70.2932 136.765 69.5989L137.572 67.7762L137.832 67.3856L143.092 55.0955H146.217L139.707 70.1196C139.273 71.1612 138.787 71.9857 138.249 72.5933C137.728 73.2008 137.138 73.6261 136.478 73.8692C135.836 74.1122 135.124 74.2337 134.343 74.2337ZM137.207 69.4947L130.932 55.0955H134.317L139.421 67.0992L137.207 69.4947ZM155.759 69V50.7732H158.546L166.513 64.0788H165.055L172.893 50.7732H175.679L175.705 69H172.502L172.476 55.7986H173.153L166.487 66.9169H164.977L158.207 55.7986H158.988V69H155.759ZM186.565 69.1823C185.141 69.1823 183.874 68.8785 182.763 68.2709C181.652 67.646 180.776 66.7954 180.133 65.7192C179.491 64.6429 179.17 63.4191 179.17 62.0478C179.17 60.6591 179.491 59.4353 180.133 58.3764C180.776 57.3001 181.652 56.4582 182.763 55.8507C183.874 55.2431 185.141 54.9393 186.565 54.9393C188.006 54.9393 189.282 55.2431 190.392 55.8507C191.521 56.4582 192.397 57.2914 193.022 58.3503C193.665 59.4092 193.986 60.6417 193.986 62.0478C193.986 63.4191 193.665 64.6429 193.022 65.7192C192.397 66.7954 191.521 67.646 190.392 68.2709C189.282 68.8785 188.006 69.1823 186.565 69.1823ZM186.565 66.3962C187.363 66.3962 188.075 66.2226 188.7 65.8754C189.325 65.5282 189.811 65.0248 190.158 64.3652C190.523 63.7055 190.705 62.9331 190.705 62.0478C190.705 61.1451 190.523 60.3726 190.158 59.7304C189.811 59.0707 189.325 58.5673 188.7 58.2201C188.075 57.873 187.372 57.6994 186.591 57.6994C185.792 57.6994 185.081 57.873 184.456 58.2201C183.848 58.5673 183.362 59.0707 182.998 59.7304C182.633 60.3726 182.451 61.1451 182.451 62.0478C182.451 62.9331 182.633 63.7055 182.998 64.3652C183.362 65.0248 183.848 65.5282 184.456 65.8754C185.081 66.2226 185.784 66.3962 186.565 66.3962ZM197.098 69V55.0955H200.197V58.9232L199.832 57.8035C200.249 56.8661 200.9 56.1544 201.785 55.6684C202.688 55.1823 203.807 54.9393 205.144 54.9393V58.0379C205.005 58.0032 204.875 57.9858 204.753 57.9858C204.632 57.9684 204.51 57.9598 204.389 57.9598C203.156 57.9598 202.176 58.3243 201.447 59.0534C200.717 59.7651 200.353 60.8327 200.353 62.2561V69H197.098ZM215.48 69V66.1879L215.298 65.589V60.6677C215.298 59.713 215.011 58.9753 214.438 58.4545C213.866 57.9164 212.998 57.6473 211.835 57.6473C211.053 57.6473 210.281 57.7688 209.517 58.0118C208.771 58.2549 208.137 58.5934 207.616 59.0273L206.341 56.6578C207.087 56.085 207.972 55.6597 208.996 55.382C210.038 55.0869 211.114 54.9393 212.225 54.9393C214.239 54.9393 215.792 55.4254 216.886 56.3975C217.997 57.3522 218.552 58.8364 218.552 60.85V69H215.48ZM211.106 69.1823C210.064 69.1823 209.153 69.0087 208.372 68.6615C207.59 68.297 206.983 67.8022 206.549 67.1773C206.132 66.535 205.924 65.8146 205.924 65.0161C205.924 64.235 206.106 63.532 206.471 62.907C206.853 62.2821 207.469 61.7874 208.319 61.4229C209.17 61.0583 210.298 60.876 211.704 60.876H215.74V63.0372H211.939C210.828 63.0372 210.081 63.2195 209.699 63.584C209.318 63.9312 209.127 64.3652 209.127 64.8859C209.127 65.4761 209.361 65.9448 209.83 66.292C210.298 66.6392 210.949 66.8128 211.783 66.8128C212.581 66.8128 213.293 66.6305 213.918 66.266C214.56 65.9014 215.02 65.3633 215.298 64.6516L215.845 66.6045C215.532 67.4203 214.968 68.0539 214.152 68.5053C213.354 68.9566 212.338 69.1823 211.106 69.1823ZM210.324 53.1947L213.84 49.6275H217.667L213.137 53.1947H210.324ZM230.619 54.9393C231.73 54.9393 232.72 55.1563 233.588 55.5903C234.473 56.0242 235.167 56.6926 235.671 57.5952C236.174 58.4805 236.426 59.6262 236.426 61.0323V69H233.171V61.4489C233.171 60.2164 232.876 59.2964 232.286 58.6888C231.713 58.0813 230.906 57.7775 229.864 57.7775C229.1 57.7775 228.423 57.9337 227.833 58.2462C227.243 58.5586 226.783 59.0273 226.453 59.6522C226.141 60.2598 225.984 61.0323 225.984 61.9697V69H222.73V55.0955H225.828V58.8451L225.281 57.6994C225.767 56.8141 226.47 56.1371 227.39 55.6684C228.328 55.1823 229.404 54.9393 230.619 54.9393ZM249.313 63.9225C248.723 63.9225 248.219 63.7229 247.803 63.3236C247.386 62.9244 247.178 62.3949 247.178 61.7353C247.178 61.093 247.386 60.5723 247.803 60.173C248.219 59.7738 248.723 59.5741 249.313 59.5741C249.938 59.5741 250.45 59.7738 250.849 60.173C251.249 60.5723 251.448 61.093 251.448 61.7353C251.448 62.3949 251.249 62.9244 250.849 63.3236C250.45 63.7229 249.938 63.9225 249.313 63.9225ZM265.758 59.1575H274.845V62.0217H265.758V59.1575ZM266.044 69H262.659V50.7732H275.965V53.6114H266.044V69ZM284.429 69.1823C283.248 69.1823 282.207 68.9653 281.304 68.5313C280.402 68.08 279.699 67.403 279.195 66.5003C278.692 65.5803 278.44 64.4259 278.44 63.0372V55.0955H281.695V62.5946C281.695 63.8444 281.973 64.7818 282.528 65.4067C283.101 66.0143 283.908 66.3181 284.95 66.3181C285.713 66.3181 286.373 66.1618 286.928 65.8494C287.501 65.5369 287.944 65.0682 288.256 64.4433C288.586 63.8184 288.751 63.0459 288.751 62.1259V55.0955H292.006V69H288.907V65.2505L289.454 66.3962C288.985 67.2988 288.3 67.9932 287.397 68.4792C286.495 68.9479 285.505 69.1823 284.429 69.1823ZM296.267 69V49.6796H299.522V69H296.267ZM303.794 69V49.6796H307.049V69H303.794ZM315.617 69.1823C314.454 69.1823 313.335 69.0347 312.258 68.7396C311.199 68.4272 310.357 68.0539 309.733 67.62L310.982 65.1463C311.607 65.5456 312.354 65.8754 313.222 66.1358C314.09 66.3962 314.958 66.5264 315.825 66.5264C316.85 66.5264 317.587 66.3875 318.039 66.1097C318.507 65.832 318.742 65.4588 318.742 64.9901C318.742 64.6082 318.586 64.3218 318.273 64.1308C317.961 63.9225 317.553 63.7663 317.049 63.6621C316.546 63.558 315.982 63.4625 315.357 63.3757C314.749 63.2889 314.133 63.1761 313.508 63.0372C312.901 62.881 312.345 62.664 311.842 62.3863C311.338 62.0912 310.93 61.7006 310.618 61.2145C310.305 60.7285 310.149 60.0862 310.149 59.2877C310.149 58.4024 310.401 57.6386 310.904 56.9963C311.408 56.3367 312.111 55.8333 313.013 55.4861C313.933 55.1216 315.018 54.9393 316.268 54.9393C317.206 54.9393 318.152 55.0435 319.106 55.2518C320.061 55.4601 320.851 55.7552 321.476 56.1371L320.226 58.6107C319.566 58.2115 318.898 57.9424 318.221 57.8035C317.561 57.6473 316.902 57.5692 316.242 57.5692C315.253 57.5692 314.515 57.7167 314.029 58.0118C313.56 58.3069 313.326 58.6802 313.326 59.1315C313.326 59.5481 313.482 59.8606 313.795 60.0689C314.107 60.2772 314.515 60.4421 315.018 60.5636C315.522 60.6851 316.077 60.7893 316.685 60.876C317.31 60.9455 317.926 61.0583 318.533 61.2145C319.141 61.3708 319.697 61.5878 320.2 61.8655C320.721 62.1259 321.137 62.4991 321.45 62.9852C321.762 63.4712 321.918 64.1048 321.918 64.8859C321.918 65.7539 321.658 66.509 321.137 67.1513C320.634 67.7936 319.914 68.297 318.976 68.6615C318.039 69.0087 316.919 69.1823 315.617 69.1823ZM329.955 69.1823C328.428 69.1823 327.247 68.7917 326.414 68.0105C325.581 67.212 325.164 66.0403 325.164 64.4954V52.023H328.419V64.4173C328.419 65.0769 328.584 65.589 328.914 65.9535C329.261 66.3181 329.738 66.5003 330.346 66.5003C331.075 66.5003 331.682 66.3094 332.168 65.9275L333.08 68.2449C332.698 68.5573 332.229 68.7917 331.674 68.9479C331.118 69.1042 330.545 69.1823 329.955 69.1823ZM322.873 57.8035V55.1997H332.142V57.8035H322.873ZM344.324 69V66.1879L344.142 65.589V60.6677C344.142 59.713 343.855 58.9753 343.282 58.4545C342.709 57.9164 341.841 57.6473 340.678 57.6473C339.897 57.6473 339.125 57.7688 338.361 58.0118C337.615 58.2549 336.981 58.5934 336.46 59.0273L335.184 56.6578C335.931 56.085 336.816 55.6597 337.84 55.382C338.882 55.0869 339.958 54.9393 341.069 54.9393C343.083 54.9393 344.636 55.4254 345.73 56.3975C346.841 57.3522 347.396 58.8364 347.396 60.85V69H344.324ZM339.949 69.1823C338.908 69.1823 337.997 69.0087 337.215 68.6615C336.434 68.297 335.827 67.8022 335.393 67.1773C334.976 66.535 334.768 65.8146 334.768 65.0161C334.768 64.235 334.95 63.532 335.315 62.907C335.696 62.2821 336.313 61.7874 337.163 61.4229C338.014 61.0583 339.142 60.876 340.548 60.876H344.584V63.0372H340.783C339.672 63.0372 338.925 63.2195 338.543 63.584C338.161 63.9312 337.97 64.3652 337.97 64.8859C337.97 65.4761 338.205 65.9448 338.674 66.292C339.142 66.6392 339.793 66.8128 340.626 66.8128C341.425 66.8128 342.137 66.6305 342.762 66.266C343.404 65.9014 343.864 65.3633 344.142 64.6516L344.688 66.6045C344.376 67.4203 343.812 68.0539 342.996 68.5053C342.197 68.9566 341.182 69.1823 339.949 69.1823ZM357.978 69.1823C356.52 69.1823 355.218 68.8785 354.073 68.2709C352.944 67.646 352.059 66.7954 351.417 65.7192C350.774 64.6429 350.453 63.4191 350.453 62.0478C350.453 60.6591 350.774 59.4353 351.417 58.3764C352.059 57.3001 352.944 56.4582 354.073 55.8507C355.218 55.2431 356.52 54.9393 357.978 54.9393C359.332 54.9393 360.521 55.2171 361.546 55.7725C362.587 56.3107 363.377 57.1092 363.915 58.1681L361.415 59.6262C360.999 58.9666 360.487 58.4805 359.879 58.1681C359.289 57.8556 358.647 57.6994 357.952 57.6994C357.154 57.6994 356.433 57.873 355.791 58.2201C355.149 58.5673 354.645 59.0707 354.281 59.7304C353.916 60.3726 353.734 61.1451 353.734 62.0478C353.734 62.9504 353.916 63.7316 354.281 64.3912C354.645 65.0335 355.149 65.5282 355.791 65.8754C356.433 66.2226 357.154 66.3962 357.952 66.3962C358.647 66.3962 359.289 66.2399 359.879 65.9275C360.487 65.615 360.999 65.129 361.415 64.4693L363.915 65.9275C363.377 66.969 362.587 67.7762 361.546 68.349C360.521 68.9045 359.332 69.1823 357.978 69.1823ZM369.257 65.9014L369.335 61.8134L376.6 55.0955H380.506L374.335 61.2927L372.616 62.7248L369.257 65.9014ZM366.601 69V49.6796H369.856V69H366.601ZM377.095 69L372.017 62.7248L374.074 60.1209L381.053 69H377.095ZM390.664 69V50.7732H398.631C400.61 50.7732 402.346 51.1551 403.839 51.9189C405.332 52.6827 406.495 53.7416 407.328 55.0955C408.161 56.4495 408.578 58.0466 408.578 59.8866C408.578 61.7093 408.161 63.3063 407.328 64.6776C406.495 66.0316 405.332 67.0905 403.839 67.8543C402.346 68.6181 400.61 69 398.631 69H390.664ZM394.049 66.1358H398.475C399.847 66.1358 401.027 65.8754 402.016 65.3546C403.023 64.8339 403.796 64.1048 404.334 63.1674C404.889 62.23 405.167 61.1364 405.167 59.8866C405.167 58.6194 404.889 57.5258 404.334 56.6058C403.796 55.6684 403.023 54.9393 402.016 54.4185C401.027 53.8978 399.847 53.6374 398.475 53.6374H394.049V66.1358ZM418.399 69.1823C416.854 69.1823 415.5 68.8785 414.337 68.2709C413.191 67.646 412.297 66.7954 411.655 65.7192C411.03 64.6429 410.718 63.4191 410.718 62.0478C410.718 60.6591 411.021 59.4353 411.629 58.3764C412.254 57.3001 413.104 56.4582 414.181 55.8507C415.274 55.2431 416.515 54.9393 417.904 54.9393C419.258 54.9393 420.465 55.2344 421.524 55.8246C422.582 56.4148 423.416 57.248 424.023 58.3243C424.631 59.4005 424.935 60.6677 424.935 62.1259C424.935 62.2648 424.926 62.421 424.909 62.5946C424.909 62.7682 424.9 62.9331 424.882 63.0893H413.295V60.9281H423.164L421.888 61.6051C421.905 60.8066 421.741 60.1036 421.393 59.496C421.046 58.8885 420.569 58.4111 419.961 58.0639C419.371 57.7167 418.685 57.5431 417.904 57.5431C417.106 57.5431 416.403 57.7167 415.795 58.0639C415.205 58.4111 414.736 58.8971 414.389 59.5221C414.059 60.1296 413.894 60.85 413.894 61.6832V62.204C413.894 63.0372 414.085 63.775 414.467 64.4173C414.849 65.0595 415.387 65.5543 416.082 65.9014C416.776 66.2486 417.574 66.4222 418.477 66.4222C419.258 66.4222 419.961 66.3007 420.586 66.0577C421.211 65.8146 421.767 65.4328 422.253 64.912L423.997 66.9169C423.372 67.646 422.582 68.2102 421.628 68.6094C420.69 68.9913 419.614 69.1823 418.399 69.1823ZM431.504 69L425.541 55.0955H428.926L434.056 67.3596H432.389L437.701 55.0955H440.826L434.863 69H431.504ZM449.014 69.1823C447.469 69.1823 446.115 68.8785 444.952 68.2709C443.807 67.646 442.913 66.7954 442.27 65.7192C441.645 64.6429 441.333 63.4191 441.333 62.0478C441.333 60.6591 441.637 59.4353 442.244 58.3764C442.869 57.3001 443.72 56.4582 444.796 55.8507C445.89 55.2431 447.131 54.9393 448.52 54.9393C449.874 54.9393 451.08 55.2344 452.139 55.8246C453.198 56.4148 454.031 57.248 454.639 58.3243C455.246 59.4005 455.55 60.6677 455.55 62.1259C455.55 62.2648 455.541 62.421 455.524 62.5946C455.524 62.7682 455.515 62.9331 455.498 63.0893H443.911V60.9281H453.779L452.503 61.6051C452.521 60.8066 452.356 60.1036 452.009 59.496C451.662 58.8885 451.184 58.4111 450.577 58.0639C449.986 57.7167 449.301 57.5431 448.52 57.5431C447.721 57.5431 447.018 57.7167 446.41 58.0639C445.82 58.4111 445.352 58.8971 445.004 59.5221C444.675 60.1296 444.51 60.85 444.51 61.6832V62.204C444.51 63.0372 444.701 63.775 445.083 64.4173C445.464 65.0595 446.003 65.5543 446.697 65.9014C447.391 66.2486 448.19 66.4222 449.092 66.4222C449.874 66.4222 450.577 66.3007 451.202 66.0577C451.826 65.8146 452.382 65.4328 452.868 64.912L454.613 66.9169C453.988 67.646 453.198 68.2102 452.243 68.6094C451.306 68.9913 450.229 69.1823 449.014 69.1823ZM458.676 69V49.6796H461.931V69H458.676ZM472.452 69.1823C471.029 69.1823 469.762 68.8785 468.651 68.2709C467.54 67.646 466.663 66.7954 466.021 65.7192C465.378 64.6429 465.057 63.4191 465.057 62.0478C465.057 60.6591 465.378 59.4353 466.021 58.3764C466.663 57.3001 467.54 56.4582 468.651 55.8507C469.762 55.2431 471.029 54.9393 472.452 54.9393C473.893 54.9393 475.169 55.2431 476.28 55.8507C477.408 56.4582 478.285 57.2914 478.91 58.3503C479.552 59.4092 479.873 60.6417 479.873 62.0478C479.873 63.4191 479.552 64.6429 478.91 65.7192C478.285 66.7954 477.408 67.646 476.28 68.2709C475.169 68.8785 473.893 69.1823 472.452 69.1823ZM472.452 66.3962C473.251 66.3962 473.962 66.2226 474.587 65.8754C475.212 65.5282 475.698 65.0248 476.046 64.3652C476.41 63.7055 476.592 62.9331 476.592 62.0478C476.592 61.1451 476.41 60.3726 476.046 59.7304C475.698 59.0707 475.212 58.5673 474.587 58.2201C473.962 57.873 473.259 57.6994 472.478 57.6994C471.68 57.6994 470.968 57.873 470.343 58.2201C469.736 58.5673 469.25 59.0707 468.885 59.7304C468.52 60.3726 468.338 61.1451 468.338 62.0478C468.338 62.9331 468.52 63.7055 468.885 64.3652C469.25 65.0248 469.736 65.5282 470.343 65.8754C470.968 66.2226 471.671 66.3962 472.452 66.3962ZM490.693 69.1823C489.565 69.1823 488.532 68.9219 487.594 68.4011C486.674 67.8804 485.937 67.0992 485.381 66.0577C484.843 64.9988 484.574 63.6621 484.574 62.0478C484.574 60.416 484.834 59.0794 485.355 58.0379C485.893 56.9963 486.622 56.2239 487.542 55.7205C488.462 55.1997 489.512 54.9393 490.693 54.9393C492.064 54.9393 493.271 55.2344 494.312 55.8246C495.371 56.4148 496.204 57.2394 496.812 58.2983C497.437 59.3571 497.749 60.607 497.749 62.0478C497.749 63.4886 497.437 64.7471 496.812 65.8233C496.204 66.8822 495.371 67.7068 494.312 68.297C493.271 68.8872 492.064 69.1823 490.693 69.1823ZM482.986 74.0514V55.0955H486.084V58.3764L485.98 62.0738L486.24 65.7712V74.0514H482.986ZM490.328 66.3962C491.109 66.3962 491.804 66.2226 492.411 65.8754C493.036 65.5282 493.531 65.0248 493.896 64.3652C494.26 63.7055 494.442 62.9331 494.442 62.0478C494.442 61.1451 494.26 60.3726 493.896 59.7304C493.531 59.0707 493.036 58.5673 492.411 58.2201C491.804 57.873 491.109 57.6994 490.328 57.6994C489.547 57.6994 488.844 57.873 488.219 58.2201C487.594 58.5673 487.1 59.0707 486.735 59.7304C486.371 60.3726 486.188 61.1451 486.188 62.0478C486.188 62.9331 486.371 63.7055 486.735 64.3652C487.1 65.0248 487.594 65.5282 488.219 65.8754C488.844 66.2226 489.547 66.3962 490.328 66.3962ZM507.372 69.1823C505.827 69.1823 504.473 68.8785 503.31 68.2709C502.164 67.646 501.27 66.7954 500.628 65.7192C500.003 64.6429 499.69 63.4191 499.69 62.0478C499.69 60.6591 499.994 59.4353 500.602 58.3764C501.227 57.3001 502.077 56.4582 503.153 55.8507C504.247 55.2431 505.488 54.9393 506.877 54.9393C508.231 54.9393 509.437 55.2344 510.496 55.8246C511.555 56.4148 512.388 57.248 512.996 58.3243C513.603 59.4005 513.907 60.6677 513.907 62.1259C513.907 62.2648 513.899 62.421 513.881 62.5946C513.881 62.7682 513.873 62.9331 513.855 63.0893H502.268V60.9281H512.137L510.861 61.6051C510.878 60.8066 510.713 60.1036 510.366 59.496C510.019 58.8885 509.542 58.4111 508.934 58.0639C508.344 57.7167 507.658 57.5431 506.877 57.5431C506.078 57.5431 505.375 57.7167 504.768 58.0639C504.178 58.4111 503.709 58.8971 503.362 59.5221C503.032 60.1296 502.867 60.85 502.867 61.6832V62.204C502.867 63.0372 503.058 63.775 503.44 64.4173C503.822 65.0595 504.36 65.5543 505.054 65.9014C505.749 66.2486 506.547 66.4222 507.45 66.4222C508.231 66.4222 508.934 66.3007 509.559 66.0577C510.184 65.8146 510.739 65.4328 511.225 64.912L512.97 66.9169C512.345 67.646 511.555 68.2102 510.6 68.6094C509.663 68.9913 508.587 69.1823 507.372 69.1823ZM517.034 69V55.0955H520.132V58.9232L519.768 57.8035C520.184 56.8661 520.835 56.1544 521.721 55.6684C522.623 55.1823 523.743 54.9393 525.08 54.9393V58.0379C524.941 58.0032 524.81 57.9858 524.689 57.9858C524.567 57.9684 524.446 57.9598 524.324 57.9598C523.092 57.9598 522.111 58.3243 521.382 59.0534C520.653 59.7651 520.288 60.8327 520.288 62.2561V69H517.034ZM536.726 63.9225C536.136 63.9225 535.633 63.7229 535.216 63.3236C534.799 62.9244 534.591 62.3949 534.591 61.7353C534.591 61.093 534.799 60.5723 535.216 60.173C535.633 59.7738 536.136 59.5741 536.726 59.5741C537.351 59.5741 537.863 59.7738 538.262 60.173C538.662 60.5723 538.861 61.093 538.861 61.7353C538.861 62.3949 538.662 62.9244 538.262 63.3236C537.863 63.7229 537.351 63.9225 536.726 63.9225ZM553.197 58.3503H562.258V61.1364H553.197V58.3503ZM553.457 66.1618H563.742V69H550.072V50.7732H563.378V53.6114H553.457V66.1618ZM571.372 69.1823C570.209 69.1823 569.09 69.0347 568.013 68.7396C566.955 68.4272 566.113 68.0539 565.488 67.62L566.738 65.1463C567.362 65.5456 568.109 65.8754 568.977 66.1358C569.845 66.3962 570.713 66.5264 571.581 66.5264C572.605 66.5264 573.343 66.3875 573.794 66.1097C574.263 65.832 574.497 65.4588 574.497 64.9901C574.497 64.6082 574.341 64.3218 574.028 64.1308C573.716 63.9225 573.308 63.7663 572.804 63.6621C572.301 63.558 571.737 63.4625 571.112 63.3757C570.504 63.2889 569.888 63.1761 569.263 63.0372C568.656 62.881 568.1 62.664 567.597 62.3863C567.093 62.0912 566.685 61.7006 566.373 61.2145C566.061 60.7285 565.904 60.0862 565.904 59.2877C565.904 58.4024 566.156 57.6386 566.659 56.9963C567.163 56.3367 567.866 55.8333 568.769 55.4861C569.689 55.1216 570.773 54.9393 572.023 54.9393C572.961 54.9393 573.907 55.0435 574.862 55.2518C575.816 55.4601 576.606 55.7552 577.231 56.1371L575.981 58.6107C575.322 58.2115 574.653 57.9424 573.976 57.8035C573.317 57.6473 572.657 57.5692 571.997 57.5692C571.008 57.5692 570.27 57.7167 569.784 58.0118C569.315 58.3069 569.081 58.6802 569.081 59.1315C569.081 59.5481 569.237 59.8606 569.55 60.0689C569.862 60.2772 570.27 60.4421 570.773 60.5636C571.277 60.6851 571.832 60.7893 572.44 60.876C573.065 60.9455 573.681 61.0583 574.289 61.2145C574.896 61.3708 575.452 61.5878 575.955 61.8655C576.476 62.1259 576.893 62.4991 577.205 62.9852C577.517 63.4712 577.674 64.1048 577.674 64.8859C577.674 65.7539 577.413 66.509 576.893 67.1513C576.389 67.7936 575.669 68.297 574.731 68.6615C573.794 69.0087 572.674 69.1823 571.372 69.1823ZM585.71 69.1823C584.183 69.1823 583.002 68.7917 582.169 68.0105C581.336 67.212 580.919 66.0403 580.919 64.4954V52.023H584.174V64.4173C584.174 65.0769 584.339 65.589 584.669 65.9535C585.016 66.3181 585.493 66.5003 586.101 66.5003C586.83 66.5003 587.438 66.3094 587.924 65.9275L588.835 68.2449C588.453 68.5573 587.984 68.7917 587.429 68.9479C586.873 69.1042 586.301 69.1823 585.71 69.1823ZM578.628 57.8035V55.1997H587.898V57.8035H578.628ZM597.59 69.1823C596.045 69.1823 594.691 68.8785 593.528 68.2709C592.383 67.646 591.489 66.7954 590.846 65.7192C590.221 64.6429 589.909 63.4191 589.909 62.0478C589.909 60.6591 590.213 59.4353 590.82 58.3764C591.445 57.3001 592.296 56.4582 593.372 55.8507C594.466 55.2431 595.707 54.9393 597.096 54.9393C598.45 54.9393 599.656 55.2344 600.715 55.8246C601.774 56.4148 602.607 57.248 603.215 58.3243C603.822 59.4005 604.126 60.6677 604.126 62.1259C604.126 62.2648 604.117 62.421 604.1 62.5946C604.1 62.7682 604.091 62.9331 604.074 63.0893H592.487V60.9281H602.355L601.079 61.6051C601.097 60.8066 600.932 60.1036 600.585 59.496C600.238 58.8885 599.76 58.4111 599.153 58.0639C598.562 57.7167 597.877 57.5431 597.096 57.5431C596.297 57.5431 595.594 57.7167 594.986 58.0639C594.396 58.4111 593.928 58.8971 593.58 59.5221C593.251 60.1296 593.086 60.85 593.086 61.6832V62.204C593.086 63.0372 593.277 63.775 593.659 64.4173C594.04 65.0595 594.579 65.5543 595.273 65.9014C595.967 66.2486 596.766 66.4222 597.668 66.4222C598.45 66.4222 599.153 66.3007 599.778 66.0577C600.402 65.8146 600.958 65.4328 601.444 64.912L603.189 66.9169C602.564 67.646 601.774 68.2102 600.819 68.6094C599.882 68.9913 598.805 69.1823 597.59 69.1823ZM607.695 69V54.3144C607.695 52.8562 608.12 51.6932 608.971 50.8253C609.839 49.94 611.071 49.4973 612.668 49.4973C613.241 49.4973 613.779 49.5581 614.283 49.6796C614.803 49.8011 615.237 49.992 615.585 50.2524L614.699 52.7C614.456 52.5091 614.179 52.3702 613.866 52.2834C613.554 52.1793 613.232 52.1272 612.903 52.1272C612.226 52.1272 611.714 52.3181 611.366 52.7C611.019 53.0646 610.846 53.62 610.846 54.3665V55.9288L610.95 57.3869V69H607.695ZM605.404 57.8035V55.1997H614.673V57.8035H605.404ZM625.176 69V66.1879L624.994 65.589V60.6677C624.994 59.713 624.708 58.9753 624.135 58.4545C623.562 57.9164 622.694 57.6473 621.531 57.6473C620.75 57.6473 619.977 57.7688 619.214 58.0118C618.467 58.2549 617.834 58.5934 617.313 59.0273L616.037 56.6578C616.783 56.085 617.669 55.6597 618.693 55.382C619.734 55.0869 620.811 54.9393 621.922 54.9393C623.935 54.9393 625.489 55.4254 626.583 56.3975C627.694 57.3522 628.249 58.8364 628.249 60.85V69H625.176ZM620.802 69.1823C619.761 69.1823 618.849 69.0087 618.068 68.6615C617.287 68.297 616.679 67.8022 616.245 67.1773C615.829 66.535 615.62 65.8146 615.62 65.0161C615.62 64.235 615.803 63.532 616.167 62.907C616.549 62.2821 617.165 61.7874 618.016 61.4229C618.867 61.0583 619.995 60.876 621.401 60.876H625.437V63.0372H621.635C620.524 63.0372 619.778 63.2195 619.396 63.584C619.014 63.9312 618.823 64.3652 618.823 64.8859C618.823 65.4761 619.057 65.9448 619.526 66.292C619.995 66.6392 620.646 66.8128 621.479 66.8128C622.278 66.8128 622.989 66.6305 623.614 66.266C624.256 65.9014 624.716 65.3633 624.994 64.6516L625.541 66.6045C625.229 67.4203 624.664 68.0539 623.849 68.5053C623.05 68.9566 622.035 69.1823 620.802 69.1823ZM640.316 54.9393C641.427 54.9393 642.416 55.1563 643.284 55.5903C644.169 56.0242 644.864 56.6926 645.367 57.5952C645.871 58.4805 646.122 59.6262 646.122 61.0323V69H642.867V61.4489C642.867 60.2164 642.572 59.2964 641.982 58.6888C641.409 58.0813 640.602 57.7775 639.561 57.7775C638.797 57.7775 638.12 57.9337 637.53 58.2462C636.939 58.5586 636.479 59.0273 636.15 59.6522C635.837 60.2598 635.681 61.0323 635.681 61.9697V69H632.426V55.0955H635.525V58.8451L634.978 57.6994C635.464 56.8141 636.167 56.1371 637.087 55.6684C638.024 55.1823 639.101 54.9393 640.316 54.9393ZM658.141 54.9393C659.252 54.9393 660.241 55.1563 661.109 55.5903C661.994 56.0242 662.689 56.6926 663.192 57.5952C663.696 58.4805 663.947 59.6262 663.947 61.0323V69H660.693V61.4489C660.693 60.2164 660.397 59.2964 659.807 58.6888C659.234 58.0813 658.427 57.7775 657.386 57.7775C656.622 57.7775 655.945 57.9337 655.355 58.2462C654.764 58.5586 654.304 59.0273 653.975 59.6522C653.662 60.2598 653.506 61.0323 653.506 61.9697V69H650.251V55.0955H653.35V58.8451L652.803 57.6994C653.289 56.8141 653.992 56.1371 654.912 55.6684C655.849 55.1823 656.926 54.9393 658.141 54.9393ZM668.968 74.2337C668.291 74.2337 667.614 74.1209 666.937 73.8952C666.26 73.6695 665.695 73.3571 665.244 72.9578L666.546 70.5623C666.876 70.8574 667.249 71.0917 667.666 71.2653C668.082 71.4389 668.508 71.5257 668.942 71.5257C669.532 71.5257 670.009 71.3782 670.374 71.0831C670.738 70.788 671.077 70.2932 671.389 69.5989L672.196 67.7762L672.457 67.3856L677.716 55.0955H680.841L674.331 70.1196C673.898 71.1612 673.411 71.9857 672.873 72.5933C672.353 73.2008 671.762 73.6261 671.103 73.8692C670.46 74.1122 669.749 74.2337 668.968 74.2337ZM671.832 69.4947L665.557 55.0955H668.942L674.045 67.0992L671.832 69.4947ZM690.384 69V50.7732H693.17L701.138 64.0788H699.68L707.517 50.7732H710.303L710.329 69H707.127L707.101 55.7986H707.778L701.112 66.9169H699.602L692.832 55.7986H693.613V69H690.384ZM721.189 69.1823C719.766 69.1823 718.499 68.8785 717.388 68.2709C716.277 67.646 715.4 66.7954 714.758 65.7192C714.116 64.6429 713.794 63.4191 713.794 62.0478C713.794 60.6591 714.116 59.4353 714.758 58.3764C715.4 57.3001 716.277 56.4582 717.388 55.8507C718.499 55.2431 719.766 54.9393 721.189 54.9393C722.63 54.9393 723.906 55.2431 725.017 55.8507C726.145 56.4582 727.022 57.2914 727.647 58.3503C728.289 59.4092 728.61 60.6417 728.61 62.0478C728.61 63.4191 728.289 64.6429 727.647 65.7192C727.022 66.7954 726.145 67.646 725.017 68.2709C723.906 68.8785 722.63 69.1823 721.189 69.1823ZM721.189 66.3962C721.988 66.3962 722.699 66.2226 723.324 65.8754C723.949 65.5282 724.435 65.0248 724.783 64.3652C725.147 63.7055 725.329 62.9331 725.329 62.0478C725.329 61.1451 725.147 60.3726 724.783 59.7304C724.435 59.0707 723.949 58.5673 723.324 58.2201C722.699 57.873 721.996 57.6994 721.215 57.6994C720.417 57.6994 719.705 57.873 719.08 58.2201C718.473 58.5673 717.987 59.0707 717.622 59.7304C717.257 60.3726 717.075 61.1451 717.075 62.0478C717.075 62.9331 717.257 63.7055 717.622 64.3652C717.987 65.0248 718.473 65.5282 719.08 65.8754C719.705 66.2226 720.408 66.3962 721.189 66.3962ZM731.723 69V55.0955H734.821V58.9232L734.457 57.8035C734.873 56.8661 735.524 56.1544 736.41 55.6684C737.312 55.1823 738.432 54.9393 739.768 54.9393V58.0379C739.63 58.0032 739.499 57.9858 739.378 57.9858C739.256 57.9684 739.135 57.9598 739.013 57.9598C737.781 57.9598 736.8 58.3243 736.071 59.0534C735.342 59.7651 734.977 60.8327 734.977 62.2561V69H731.723ZM750.104 69V66.1879L749.922 65.589V60.6677C749.922 59.713 749.636 58.9753 749.063 58.4545C748.49 57.9164 747.622 57.6473 746.459 57.6473C745.678 57.6473 744.905 57.7688 744.142 58.0118C743.395 58.2549 742.762 58.5934 742.241 59.0273L740.965 56.6578C741.711 56.085 742.597 55.6597 743.621 55.382C744.662 55.0869 745.739 54.9393 746.85 54.9393C748.863 54.9393 750.417 55.4254 751.51 56.3975C752.621 57.3522 753.177 58.8364 753.177 60.85V69H750.104ZM745.73 69.1823C744.688 69.1823 743.777 69.0087 742.996 68.6615C742.215 68.297 741.607 67.8022 741.173 67.1773C740.757 66.535 740.548 65.8146 740.548 65.0161C740.548 64.235 740.731 63.532 741.095 62.907C741.477 62.2821 742.093 61.7874 742.944 61.4229C743.794 61.0583 744.923 60.876 746.329 60.876H750.365V63.0372H746.563C745.452 63.0372 744.706 63.2195 744.324 63.584C743.942 63.9312 743.751 64.3652 743.751 64.8859C743.751 65.4761 743.985 65.9448 744.454 66.292C744.923 66.6392 745.574 66.8128 746.407 66.8128C747.205 66.8128 747.917 66.6305 748.542 66.266C749.184 65.9014 749.644 65.3633 749.922 64.6516L750.469 66.6045C750.156 67.4203 749.592 68.0539 748.776 68.5053C747.978 68.9566 746.962 69.1823 745.73 69.1823ZM744.949 53.1947L748.464 49.6275H752.292L747.761 53.1947H744.949ZM765.244 54.9393C766.355 54.9393 767.344 55.1563 768.212 55.5903C769.097 56.0242 769.792 56.6926 770.295 57.5952C770.798 58.4805 771.05 59.6262 771.05 61.0323V69H767.795V61.4489C767.795 60.2164 767.5 59.2964 766.91 58.6888C766.337 58.0813 765.53 57.7775 764.489 57.7775C763.725 57.7775 763.048 57.9337 762.458 58.2462C761.867 58.5586 761.407 59.0273 761.077 59.6522C760.765 60.2598 760.609 61.0323 760.609 61.9697V69H757.354V55.0955H760.453V58.8451L759.906 57.6994C760.392 56.8141 761.095 56.1371 762.015 55.6684C762.952 55.1823 764.028 54.9393 765.244 54.9393ZM783.938 63.9225C783.347 63.9225 782.844 63.7229 782.427 63.3236C782.011 62.9244 781.802 62.3949 781.802 61.7353C781.802 61.093 782.011 60.5723 782.427 60.173C782.844 59.7738 783.347 59.5741 783.938 59.5741C784.562 59.5741 785.075 59.7738 785.474 60.173C785.873 60.5723 786.073 61.093 786.073 61.7353C786.073 62.3949 785.873 62.9244 785.474 63.3236C785.075 63.7229 784.562 63.9225 783.938 63.9225ZM800.382 59.1575H809.469V62.0217H800.382V59.1575ZM800.668 69H797.283V50.7732H810.589V53.6114H800.668V69ZM819.053 69.1823C817.873 69.1823 816.831 68.9653 815.929 68.5313C815.026 68.08 814.323 67.403 813.82 66.5003C813.316 65.5803 813.064 64.4259 813.064 63.0372V55.0955H816.319V62.5946C816.319 63.8444 816.597 64.7818 817.152 65.4067C817.725 66.0143 818.532 66.3181 819.574 66.3181C820.338 66.3181 820.997 66.1618 821.553 65.8494C822.126 65.5369 822.568 65.0682 822.881 64.4433C823.211 63.8184 823.376 63.0459 823.376 62.1259V55.0955H826.63V69H823.532V65.2505L824.079 66.3962C823.61 67.2988 822.924 67.9932 822.022 68.4792C821.119 68.9479 820.129 69.1823 819.053 69.1823ZM830.892 69V49.6796H834.147V69H830.892ZM838.419 69V49.6796H841.673V69H838.419ZM850.242 69.1823C849.079 69.1823 847.959 69.0347 846.883 68.7396C845.824 68.4272 844.982 68.0539 844.357 67.62L845.607 65.1463C846.232 65.5456 846.978 65.8754 847.846 66.1358C848.714 66.3962 849.582 66.5264 850.45 66.5264C851.474 66.5264 852.212 66.3875 852.663 66.1097C853.132 65.832 853.366 65.4588 853.366 64.9901C853.366 64.6082 853.21 64.3218 852.898 64.1308C852.585 63.9225 852.177 63.7663 851.674 63.6621C851.17 63.558 850.606 63.4625 849.981 63.3757C849.374 63.2889 848.757 63.1761 848.133 63.0372C847.525 62.881 846.969 62.664 846.466 62.3863C845.963 62.0912 845.555 61.7006 845.242 61.2145C844.93 60.7285 844.774 60.0862 844.774 59.2877C844.774 58.4024 845.025 57.6386 845.529 56.9963C846.032 56.3367 846.735 55.8333 847.638 55.4861C848.558 55.1216 849.643 54.9393 850.893 54.9393C851.83 54.9393 852.776 55.0435 853.731 55.2518C854.686 55.4601 855.475 55.7552 856.1 56.1371L854.85 58.6107C854.191 58.2115 853.522 57.9424 852.845 57.8035C852.186 57.6473 851.526 57.5692 850.867 57.5692C849.877 57.5692 849.139 57.7167 848.653 58.0118C848.185 58.3069 847.95 58.6802 847.95 59.1315C847.95 59.5481 848.107 59.8606 848.419 60.0689C848.731 60.2772 849.139 60.4421 849.643 60.5636C850.146 60.6851 850.702 60.7893 851.309 60.876C851.934 60.9455 852.55 61.0583 853.158 61.2145C853.765 61.3708 854.321 61.5878 854.824 61.8655C855.345 62.1259 855.762 62.4991 856.074 62.9852C856.387 63.4712 856.543 64.1048 856.543 64.8859C856.543 65.7539 856.283 66.509 855.762 67.1513C855.258 67.7936 854.538 68.297 853.601 68.6615C852.663 69.0087 851.544 69.1823 850.242 69.1823ZM864.58 69.1823C863.052 69.1823 861.872 68.7917 861.038 68.0105C860.205 67.212 859.789 66.0403 859.789 64.4954V52.023H863.043V64.4173C863.043 65.0769 863.208 65.589 863.538 65.9535C863.885 66.3181 864.363 66.5003 864.97 66.5003C865.699 66.5003 866.307 66.3094 866.793 65.9275L867.704 68.2449C867.322 68.5573 866.854 68.7917 866.298 68.9479C865.743 69.1042 865.17 69.1823 864.58 69.1823ZM857.497 57.8035V55.1997H866.767V57.8035H857.497ZM878.948 69V66.1879L878.766 65.589V60.6677C878.766 59.713 878.48 58.9753 877.907 58.4545C877.334 57.9164 876.466 57.6473 875.303 57.6473C874.522 57.6473 873.749 57.7688 872.985 58.0118C872.239 58.2549 871.605 58.5934 871.085 59.0273L869.809 56.6578C870.555 56.085 871.441 55.6597 872.465 55.382C873.506 55.0869 874.583 54.9393 875.693 54.9393C877.707 54.9393 879.261 55.4254 880.354 56.3975C881.465 57.3522 882.021 58.8364 882.021 60.85V69H878.948ZM874.574 69.1823C873.532 69.1823 872.621 69.0087 871.84 68.6615C871.059 68.297 870.451 67.8022 870.017 67.1773C869.601 66.535 869.392 65.8146 869.392 65.0161C869.392 64.235 869.574 63.532 869.939 62.907C870.321 62.2821 870.937 61.7874 871.788 61.4229C872.638 61.0583 873.767 60.876 875.173 60.876H879.209V63.0372H875.407C874.296 63.0372 873.55 63.2195 873.168 63.584C872.786 63.9312 872.595 64.3652 872.595 64.8859C872.595 65.4761 872.829 65.9448 873.298 66.292C873.767 66.6392 874.418 66.8128 875.251 66.8128C876.049 66.8128 876.761 66.6305 877.386 66.266C878.028 65.9014 878.488 65.3633 878.766 64.6516L879.313 66.6045C879 67.4203 878.436 68.0539 877.62 68.5053C876.822 68.9566 875.806 69.1823 874.574 69.1823ZM892.603 69.1823C891.145 69.1823 889.843 68.8785 888.697 68.2709C887.569 67.646 886.683 66.7954 886.041 65.7192C885.399 64.6429 885.078 63.4191 885.078 62.0478C885.078 60.6591 885.399 59.4353 886.041 58.3764C886.683 57.3001 887.569 56.4582 888.697 55.8507C889.843 55.2431 891.145 54.9393 892.603 54.9393C893.957 54.9393 895.146 55.2171 896.17 55.7725C897.212 56.3107 898.001 57.1092 898.539 58.1681L896.04 59.6262C895.623 58.9666 895.111 58.4805 894.504 58.1681C893.913 57.8556 893.271 57.6994 892.577 57.6994C891.778 57.6994 891.058 57.873 890.416 58.2201C889.773 58.5673 889.27 59.0707 888.905 59.7304C888.541 60.3726 888.358 61.1451 888.358 62.0478C888.358 62.9504 888.541 63.7316 888.905 64.3912C889.27 65.0335 889.773 65.5282 890.416 65.8754C891.058 66.2226 891.778 66.3962 892.577 66.3962C893.271 66.3962 893.913 66.2399 894.504 65.9275C895.111 65.615 895.623 65.129 896.04 64.4693L898.539 65.9275C898.001 66.969 897.212 67.7762 896.17 68.349C895.146 68.9045 893.957 69.1823 892.603 69.1823ZM903.882 65.9014L903.96 61.8134L911.225 55.0955H915.13L908.959 61.2927L907.241 62.7248L903.882 65.9014ZM901.226 69V49.6796H904.481V69H901.226ZM911.719 69L906.642 62.7248L908.699 60.1209L915.677 69H911.719ZM925.288 69V50.7732H933.256C935.235 50.7732 936.971 51.1551 938.464 51.9189C939.956 52.6827 941.119 53.7416 941.953 55.0955C942.786 56.4495 943.202 58.0466 943.202 59.8866C943.202 61.7093 942.786 63.3063 941.953 64.6776C941.119 66.0316 939.956 67.0905 938.464 67.8543C936.971 68.6181 935.235 69 933.256 69H925.288ZM928.673 66.1358H933.1C934.471 66.1358 935.651 65.8754 936.641 65.3546C937.648 64.8339 938.42 64.1048 938.958 63.1674C939.514 62.23 939.791 61.1364 939.791 59.8866C939.791 58.6194 939.514 57.5258 938.958 56.6058C938.42 55.6684 937.648 54.9393 936.641 54.4185C935.651 53.8978 934.471 53.6374 933.1 53.6374H928.673V66.1358ZM953.023 69.1823C951.478 69.1823 950.124 68.8785 948.961 68.2709C947.816 67.646 946.922 66.7954 946.279 65.7192C945.655 64.6429 945.342 63.4191 945.342 62.0478C945.342 60.6591 945.646 59.4353 946.253 58.3764C946.878 57.3001 947.729 56.4582 948.805 55.8507C949.899 55.2431 951.14 54.9393 952.529 54.9393C953.883 54.9393 955.089 55.2344 956.148 55.8246C957.207 56.4148 958.04 57.248 958.648 58.3243C959.255 59.4005 959.559 60.6677 959.559 62.1259C959.559 62.2648 959.55 62.421 959.533 62.5946C959.533 62.7682 959.524 62.9331 959.507 63.0893H947.92V60.9281H957.788L956.512 61.6051C956.53 60.8066 956.365 60.1036 956.018 59.496C955.671 58.8885 955.193 58.4111 954.586 58.0639C953.995 57.7167 953.31 57.5431 952.529 57.5431C951.73 57.5431 951.027 57.7167 950.42 58.0639C949.829 58.4111 949.361 58.8971 949.013 59.5221C948.684 60.1296 948.519 60.85 948.519 61.6832V62.204C948.519 63.0372 948.71 63.775 949.092 64.4173C949.473 65.0595 950.012 65.5543 950.706 65.9014C951.4 66.2486 952.199 66.4222 953.101 66.4222C953.883 66.4222 954.586 66.3007 955.211 66.0577C955.835 65.8146 956.391 65.4328 956.877 64.912L958.622 66.9169C957.997 67.646 957.207 68.2102 956.252 68.6094C955.315 68.9913 954.238 69.1823 953.023 69.1823ZM966.129 69L960.166 55.0955H963.551L968.68 67.3596H967.014L972.326 55.0955H975.45L969.488 69H966.129ZM983.639 69.1823C982.094 69.1823 980.74 68.8785 979.577 68.2709C978.431 67.646 977.537 66.7954 976.895 65.7192C976.27 64.6429 975.957 63.4191 975.957 62.0478C975.957 60.6591 976.261 59.4353 976.869 58.3764C977.494 57.3001 978.344 56.4582 979.421 55.8507C980.514 55.2431 981.755 54.9393 983.144 54.9393C984.498 54.9393 985.704 55.2344 986.763 55.8246C987.822 56.4148 988.655 57.248 989.263 58.3243C989.871 59.4005 990.174 60.6677 990.174 62.1259C990.174 62.2648 990.166 62.421 990.148 62.5946C990.148 62.7682 990.14 62.9331 990.122 63.0893H978.535V60.9281H988.404L987.128 61.6051C987.145 60.8066 986.98 60.1036 986.633 59.496C986.286 58.8885 985.809 58.4111 985.201 58.0639C984.611 57.7167 983.925 57.5431 983.144 57.5431C982.345 57.5431 981.642 57.7167 981.035 58.0639C980.445 58.4111 979.976 58.8971 979.629 59.5221C979.299 60.1296 979.134 60.85 979.134 61.6832V62.204C979.134 63.0372 979.325 63.775 979.707 64.4173C980.089 65.0595 980.627 65.5543 981.321 65.9014C982.016 66.2486 982.814 66.4222 983.717 66.4222C984.498 66.4222 985.201 66.3007 985.826 66.0577C986.451 65.8146 987.006 65.4328 987.492 64.912L989.237 66.9169C988.612 67.646 987.822 68.2102 986.867 68.6094C985.93 68.9913 984.854 69.1823 983.639 69.1823ZM993.301 69V49.6796H996.556V69H993.301ZM1007.08 69.1823C1005.65 69.1823 1004.39 68.8785 1003.28 68.2709C1002.16 67.646 1001.29 66.7954 1000.65 65.7192C1000 64.6429 999.682 63.4191 999.682 62.0478C999.682 60.6591 1000 59.4353 1000.65 58.3764C1001.29 57.3001 1002.16 56.4582 1003.28 55.8507C1004.39 55.2431 1005.65 54.9393 1007.08 54.9393C1008.52 54.9393 1009.79 55.2431 1010.9 55.8507C1012.03 56.4582 1012.91 57.2914 1013.53 58.3503C1014.18 59.4092 1014.5 60.6417 1014.5 62.0478C1014.5 63.4191 1014.18 64.6429 1013.53 65.7192C1012.91 66.7954 1012.03 67.646 1010.9 68.2709C1009.79 68.8785 1008.52 69.1823 1007.08 69.1823ZM1007.08 66.3962C1007.88 66.3962 1008.59 66.2226 1009.21 65.8754C1009.84 65.5282 1010.32 65.0248 1010.67 64.3652C1011.03 63.7055 1011.22 62.9331 1011.22 62.0478C1011.22 61.1451 1011.03 60.3726 1010.67 59.7304C1010.32 59.0707 1009.84 58.5673 1009.21 58.2201C1008.59 57.873 1007.88 57.6994 1007.1 57.6994C1006.3 57.6994 1005.59 57.873 1004.97 58.2201C1004.36 58.5673 1003.87 59.0707 1003.51 59.7304C1003.14 60.3726 1002.96 61.1451 1002.96 62.0478C1002.96 62.9331 1003.14 63.7055 1003.51 64.3652C1003.87 65.0248 1004.36 65.5282 1004.97 65.8754C1005.59 66.2226 1006.3 66.3962 1007.08 66.3962ZM1025.32 69.1823C1024.19 69.1823 1023.16 68.9219 1022.22 68.4011C1021.3 67.8804 1020.56 67.0992 1020.01 66.0577C1019.47 64.9988 1019.2 63.6621 1019.2 62.0478C1019.2 60.416 1019.46 59.0794 1019.98 58.0379C1020.52 56.9963 1021.25 56.2239 1022.17 55.7205C1023.09 55.1997 1024.14 54.9393 1025.32 54.9393C1026.69 54.9393 1027.9 55.2344 1028.94 55.8246C1030 56.4148 1030.83 57.2394 1031.44 58.2983C1032.06 59.3571 1032.37 60.607 1032.37 62.0478C1032.37 63.4886 1032.06 64.7471 1031.44 65.8233C1030.83 66.8822 1030 67.7068 1028.94 68.297C1027.9 68.8872 1026.69 69.1823 1025.32 69.1823ZM1017.61 74.0514V55.0955H1020.71V58.3764L1020.6 62.0738L1020.86 65.7712V74.0514H1017.61ZM1024.95 66.3962C1025.73 66.3962 1026.43 66.2226 1027.04 65.8754C1027.66 65.5282 1028.16 65.0248 1028.52 64.3652C1028.88 63.7055 1029.07 62.9331 1029.07 62.0478C1029.07 61.1451 1028.88 60.3726 1028.52 59.7304C1028.16 59.0707 1027.66 58.5673 1027.04 58.2201C1026.43 57.873 1025.73 57.6994 1024.95 57.6994C1024.17 57.6994 1023.47 57.873 1022.84 58.2201C1022.22 58.5673 1021.72 59.0707 1021.36 59.7304C1020.99 60.3726 1020.81 61.1451 1020.81 62.0478C1020.81 62.9331 1020.99 63.7055 1021.36 64.3652C1021.72 65.0248 1022.22 65.5282 1022.84 65.8754C1023.47 66.2226 1024.17 66.3962 1024.95 66.3962ZM1042 69.1823C1040.45 69.1823 1039.1 68.8785 1037.93 68.2709C1036.79 67.646 1035.89 66.7954 1035.25 65.7192C1034.63 64.6429 1034.31 63.4191 1034.31 62.0478C1034.31 60.6591 1034.62 59.4353 1035.23 58.3764C1035.85 57.3001 1036.7 56.4582 1037.78 55.8507C1038.87 55.2431 1040.11 54.9393 1041.5 54.9393C1042.86 54.9393 1044.06 55.2344 1045.12 55.8246C1046.18 56.4148 1047.01 57.248 1047.62 58.3243C1048.23 59.4005 1048.53 60.6677 1048.53 62.1259C1048.53 62.2648 1048.52 62.421 1048.51 62.5946C1048.51 62.7682 1048.5 62.9331 1048.48 63.0893H1036.89V60.9281H1046.76L1045.49 61.6051C1045.5 60.8066 1045.34 60.1036 1044.99 59.496C1044.64 58.8885 1044.17 58.4111 1043.56 58.0639C1042.97 57.7167 1042.28 57.5431 1041.5 57.5431C1040.7 57.5431 1040 57.7167 1039.39 58.0639C1038.8 58.4111 1038.33 58.8971 1037.99 59.5221C1037.66 60.1296 1037.49 60.85 1037.49 61.6832V62.204C1037.49 63.0372 1037.68 63.775 1038.06 64.4173C1038.45 65.0595 1038.98 65.5543 1039.68 65.9014C1040.37 66.2486 1041.17 66.4222 1042.07 66.4222C1042.86 66.4222 1043.56 66.3007 1044.18 66.0577C1044.81 65.8146 1045.36 65.4328 1045.85 64.912L1047.59 66.9169C1046.97 67.646 1046.18 68.2102 1045.22 68.6094C1044.29 68.9913 1043.21 69.1823 1042 69.1823ZM1051.66 69V55.0955H1054.76V58.9232L1054.39 57.8035C1054.81 56.8661 1055.46 56.1544 1056.34 55.6684C1057.25 55.1823 1058.37 54.9393 1059.7 54.9393V58.0379C1059.57 58.0032 1059.43 57.9858 1059.31 57.9858C1059.19 57.9684 1059.07 57.9598 1058.95 57.9598C1057.72 57.9598 1056.74 58.3243 1056.01 59.0534C1055.28 59.7651 1054.91 60.8327 1054.91 62.2561V69H1051.66ZM1071.35 63.9225C1070.76 63.9225 1070.26 63.7229 1069.84 63.3236C1069.42 62.9244 1069.22 62.3949 1069.22 61.7353C1069.22 61.093 1069.42 60.5723 1069.84 60.173C1070.26 59.7738 1070.76 59.5741 1071.35 59.5741C1071.98 59.5741 1072.49 59.7738 1072.89 60.173C1073.29 60.5723 1073.49 61.093 1073.49 61.7353C1073.49 62.3949 1073.29 62.9244 1072.89 63.3236C1072.49 63.7229 1071.98 63.9225 1071.35 63.9225ZM1087.82 58.3503H1096.88V61.1364H1087.82V58.3503ZM1088.08 66.1618H1098.37V69H1084.7V50.7732H1098V53.6114H1088.08V66.1618ZM1106 69.1823C1104.83 69.1823 1103.71 69.0347 1102.64 68.7396C1101.58 68.4272 1100.74 68.0539 1100.11 67.62L1101.36 65.1463C1101.99 65.5456 1102.73 65.8754 1103.6 66.1358C1104.47 66.3962 1105.34 66.5264 1106.21 66.5264C1107.23 66.5264 1107.97 66.3875 1108.42 66.1097C1108.89 65.832 1109.12 65.4588 1109.12 64.9901C1109.12 64.6082 1108.97 64.3218 1108.65 64.1308C1108.34 63.9225 1107.93 63.7663 1107.43 63.6621C1106.93 63.558 1106.36 63.4625 1105.74 63.3757C1105.13 63.2889 1104.51 63.1761 1103.89 63.0372C1103.28 62.881 1102.72 62.664 1102.22 62.3863C1101.72 62.0912 1101.31 61.7006 1101 61.2145C1100.68 60.7285 1100.53 60.0862 1100.53 59.2877C1100.53 58.4024 1100.78 57.6386 1101.28 56.9963C1101.79 56.3367 1102.49 55.8333 1103.39 55.4861C1104.31 55.1216 1105.4 54.9393 1106.65 54.9393C1107.59 54.9393 1108.53 55.0435 1109.49 55.2518C1110.44 55.4601 1111.23 55.7552 1111.86 56.1371L1110.61 58.6107C1109.95 58.2115 1109.28 57.9424 1108.6 57.8035C1107.94 57.6473 1107.28 57.5692 1106.62 57.5692C1105.63 57.5692 1104.89 57.7167 1104.41 58.0118C1103.94 58.3069 1103.71 58.6802 1103.71 59.1315C1103.71 59.5481 1103.86 59.8606 1104.17 60.0689C1104.49 60.2772 1104.89 60.4421 1105.4 60.5636C1105.9 60.6851 1106.46 60.7893 1107.06 60.876C1107.69 60.9455 1108.31 61.0583 1108.91 61.2145C1109.52 61.3708 1110.08 61.5878 1110.58 61.8655C1111.1 62.1259 1111.52 62.4991 1111.83 62.9852C1112.14 63.4712 1112.3 64.1048 1112.3 64.8859C1112.3 65.7539 1112.04 66.509 1111.52 67.1513C1111.01 67.7936 1110.29 68.297 1109.36 68.6615C1108.42 69.0087 1107.3 69.1823 1106 69.1823ZM1120.33 69.1823C1118.81 69.1823 1117.63 68.7917 1116.79 68.0105C1115.96 67.212 1115.54 66.0403 1115.54 64.4954V52.023H1118.8V64.4173C1118.8 65.0769 1118.96 65.589 1119.29 65.9535C1119.64 66.3181 1120.12 66.5003 1120.73 66.5003C1121.45 66.5003 1122.06 66.3094 1122.55 65.9275L1123.46 68.2449C1123.08 68.5573 1122.61 68.7917 1122.05 68.9479C1121.5 69.1042 1120.92 69.1823 1120.33 69.1823ZM1113.25 57.8035V55.1997H1122.52V57.8035H1113.25ZM1132.21 69.1823C1130.67 69.1823 1129.32 68.8785 1128.15 68.2709C1127.01 67.646 1126.11 66.7954 1125.47 65.7192C1124.85 64.6429 1124.53 63.4191 1124.53 62.0478C1124.53 60.6591 1124.84 59.4353 1125.44 58.3764C1126.07 57.3001 1126.92 56.4582 1128 55.8507C1129.09 55.2431 1130.33 54.9393 1131.72 54.9393C1133.07 54.9393 1134.28 55.2344 1135.34 55.8246C1136.4 56.4148 1137.23 57.248 1137.84 58.3243C1138.45 59.4005 1138.75 60.6677 1138.75 62.1259C1138.75 62.2648 1138.74 62.421 1138.72 62.5946C1138.72 62.7682 1138.72 62.9331 1138.7 63.0893H1127.11V60.9281H1136.98L1135.7 61.6051C1135.72 60.8066 1135.56 60.1036 1135.21 59.496C1134.86 58.8885 1134.38 58.4111 1133.78 58.0639C1133.19 57.7167 1132.5 57.5431 1131.72 57.5431C1130.92 57.5431 1130.22 57.7167 1129.61 58.0639C1129.02 58.4111 1128.55 58.8971 1128.2 59.5221C1127.87 60.1296 1127.71 60.85 1127.71 61.6832V62.204C1127.71 63.0372 1127.9 63.775 1128.28 64.4173C1128.66 65.0595 1129.2 65.5543 1129.9 65.9014C1130.59 66.2486 1131.39 66.4222 1132.29 66.4222C1133.07 66.4222 1133.78 66.3007 1134.4 66.0577C1135.03 65.8146 1135.58 65.4328 1136.07 64.912L1137.81 66.9169C1137.19 67.646 1136.4 68.2102 1135.44 68.6094C1134.51 68.9913 1133.43 69.1823 1132.21 69.1823ZM1142.32 69V54.3144C1142.32 52.8562 1142.74 51.6932 1143.6 50.8253C1144.46 49.94 1145.7 49.4973 1147.29 49.4973C1147.87 49.4973 1148.4 49.5581 1148.91 49.6796C1149.43 49.8011 1149.86 49.992 1150.21 50.2524L1149.32 52.7C1149.08 52.5091 1148.8 52.3702 1148.49 52.2834C1148.18 52.1793 1147.86 52.1272 1147.53 52.1272C1146.85 52.1272 1146.34 52.3181 1145.99 52.7C1145.64 53.0646 1145.47 53.62 1145.47 54.3665V55.9288L1145.57 57.3869V69H1142.32ZM1140.03 57.8035V55.1997H1149.3V57.8035H1140.03ZM1159.8 69V66.1879L1159.62 65.589V60.6677C1159.62 59.713 1159.33 58.9753 1158.76 58.4545C1158.19 57.9164 1157.32 57.6473 1156.16 57.6473C1155.37 57.6473 1154.6 57.7688 1153.84 58.0118C1153.09 58.2549 1152.46 58.5934 1151.94 59.0273L1150.66 56.6578C1151.41 56.085 1152.29 55.6597 1153.32 55.382C1154.36 55.0869 1155.44 54.9393 1156.55 54.9393C1158.56 54.9393 1160.11 55.4254 1161.21 56.3975C1162.32 57.3522 1162.87 58.8364 1162.87 60.85V69H1159.8ZM1155.43 69.1823C1154.38 69.1823 1153.47 69.0087 1152.69 68.6615C1151.91 68.297 1151.3 67.8022 1150.87 67.1773C1150.45 66.535 1150.24 65.8146 1150.24 65.0161C1150.24 64.235 1150.43 63.532 1150.79 62.907C1151.17 62.2821 1151.79 61.7874 1152.64 61.4229C1153.49 61.0583 1154.62 60.876 1156.03 60.876H1160.06V63.0372H1156.26C1155.15 63.0372 1154.4 63.2195 1154.02 63.584C1153.64 63.9312 1153.45 64.3652 1153.45 64.8859C1153.45 65.4761 1153.68 65.9448 1154.15 66.292C1154.62 66.6392 1155.27 66.8128 1156.1 66.8128C1156.9 66.8128 1157.61 66.6305 1158.24 66.266C1158.88 65.9014 1159.34 65.3633 1159.62 64.6516L1160.17 66.6045C1159.85 67.4203 1159.29 68.0539 1158.47 68.5053C1157.67 68.9566 1156.66 69.1823 1155.43 69.1823ZM1174.94 54.9393C1176.05 54.9393 1177.04 55.1563 1177.91 55.5903C1178.79 56.0242 1179.49 56.6926 1179.99 57.5952C1180.49 58.4805 1180.75 59.6262 1180.75 61.0323V69H1177.49V61.4489C1177.49 60.2164 1177.2 59.2964 1176.61 58.6888C1176.03 58.0813 1175.23 57.7775 1174.19 57.7775C1173.42 57.7775 1172.74 57.9337 1172.15 58.2462C1171.56 58.5586 1171.1 59.0273 1170.77 59.6522C1170.46 60.2598 1170.31 61.0323 1170.31 61.9697V69H1167.05V55.0955H1170.15V58.8451L1169.6 57.6994C1170.09 56.8141 1170.79 56.1371 1171.71 55.6684C1172.65 55.1823 1173.73 54.9393 1174.94 54.9393ZM1192.77 54.9393C1193.88 54.9393 1194.87 55.1563 1195.73 55.5903C1196.62 56.0242 1197.31 56.6926 1197.82 57.5952C1198.32 58.4805 1198.57 59.6262 1198.57 61.0323V69H1195.32V61.4489C1195.32 60.2164 1195.02 59.2964 1194.43 58.6888C1193.86 58.0813 1193.05 57.7775 1192.01 57.7775C1191.25 57.7775 1190.57 57.9337 1189.98 58.2462C1189.39 58.5586 1188.93 59.0273 1188.6 59.6522C1188.29 60.2598 1188.13 61.0323 1188.13 61.9697V69H1184.88V55.0955H1187.97V58.8451L1187.43 57.6994C1187.91 56.8141 1188.62 56.1371 1189.54 55.6684C1190.47 55.1823 1191.55 54.9393 1192.77 54.9393ZM1203.59 74.2337C1202.91 74.2337 1202.24 74.1209 1201.56 73.8952C1200.88 73.6695 1200.32 73.3571 1199.87 72.9578L1201.17 70.5623C1201.5 70.8574 1201.87 71.0917 1202.29 71.2653C1202.71 71.4389 1203.13 71.5257 1203.57 71.5257C1204.16 71.5257 1204.63 71.3782 1205 71.0831C1205.36 70.788 1205.7 70.2932 1206.01 69.5989L1206.82 67.7762L1207.08 67.3856L1212.34 55.0955H1215.47L1208.96 70.1196C1208.52 71.1612 1208.04 71.9857 1207.5 72.5933C1206.98 73.2008 1206.39 73.6261 1205.73 73.8692C1205.08 74.1122 1204.37 74.2337 1203.59 74.2337ZM1206.46 69.4947L1200.18 55.0955H1203.57L1208.67 67.0992L1206.46 69.4947ZM1225.01 69V50.7732H1227.79L1235.76 64.0788H1234.3L1242.14 50.7732H1244.93L1244.95 69H1241.75L1241.72 55.7986H1242.4L1235.74 66.9169H1234.23L1227.46 55.7986H1228.24V69H1225.01ZM1255.81 69.1823C1254.39 69.1823 1253.12 68.8785 1252.01 68.2709C1250.9 67.646 1250.02 66.7954 1249.38 65.7192C1248.74 64.6429 1248.42 63.4191 1248.42 62.0478C1248.42 60.6591 1248.74 59.4353 1249.38 58.3764C1250.02 57.3001 1250.9 56.4582 1252.01 55.8507C1253.12 55.2431 1254.39 54.9393 1255.81 54.9393C1257.25 54.9393 1258.53 55.2431 1259.64 55.8507C1260.77 56.4582 1261.65 57.2914 1262.27 58.3503C1262.91 59.4092 1263.23 60.6417 1263.23 62.0478C1263.23 63.4191 1262.91 64.6429 1262.27 65.7192C1261.65 66.7954 1260.77 67.646 1259.64 68.2709C1258.53 68.8785 1257.25 69.1823 1255.81 69.1823ZM1255.81 66.3962C1256.61 66.3962 1257.32 66.2226 1257.95 65.8754C1258.57 65.5282 1259.06 65.0248 1259.41 64.3652C1259.77 63.7055 1259.95 62.9331 1259.95 62.0478C1259.95 61.1451 1259.77 60.3726 1259.41 59.7304C1259.06 59.0707 1258.57 58.5673 1257.95 58.2201C1257.32 57.873 1256.62 57.6994 1255.84 57.6994C1255.04 57.6994 1254.33 57.873 1253.7 58.2201C1253.1 58.5673 1252.61 59.0707 1252.25 59.7304C1251.88 60.3726 1251.7 61.1451 1251.7 62.0478C1251.7 62.9331 1251.88 63.7055 1252.25 64.3652C1252.61 65.0248 1253.1 65.5282 1253.7 65.8754C1254.33 66.2226 1255.03 66.3962 1255.81 66.3962ZM1266.35 69V55.0955H1269.45V58.9232L1269.08 57.8035C1269.5 56.8661 1270.15 56.1544 1271.03 55.6684C1271.94 55.1823 1273.06 54.9393 1274.39 54.9393V58.0379C1274.25 58.0032 1274.12 57.9858 1274 57.9858C1273.88 57.9684 1273.76 57.9598 1273.64 57.9598C1272.41 57.9598 1271.42 58.3243 1270.7 59.0534C1269.97 59.7651 1269.6 60.8327 1269.6 62.2561V69H1266.35ZM1284.73 69V66.1879L1284.55 65.589V60.6677C1284.55 59.713 1284.26 58.9753 1283.69 58.4545C1283.11 57.9164 1282.25 57.6473 1281.08 57.6473C1280.3 57.6473 1279.53 57.7688 1278.77 58.0118C1278.02 58.2549 1277.39 58.5934 1276.87 59.0273L1275.59 56.6578C1276.34 56.085 1277.22 55.6597 1278.25 55.382C1279.29 55.0869 1280.36 54.9393 1281.47 54.9393C1283.49 54.9393 1285.04 55.4254 1286.13 56.3975C1287.25 57.3522 1287.8 58.8364 1287.8 60.85V69H1284.73ZM1280.35 69.1823C1279.31 69.1823 1278.4 69.0087 1277.62 68.6615C1276.84 68.297 1276.23 67.8022 1275.8 67.1773C1275.38 66.535 1275.17 65.8146 1275.17 65.0161C1275.17 64.235 1275.36 63.532 1275.72 62.907C1276.1 62.2821 1276.72 61.7874 1277.57 61.4229C1278.42 61.0583 1279.55 60.876 1280.95 60.876H1284.99V63.0372H1281.19C1280.08 63.0372 1279.33 63.2195 1278.95 63.584C1278.57 63.9312 1278.38 64.3652 1278.38 64.8859C1278.38 65.4761 1278.61 65.9448 1279.08 66.292C1279.55 66.6392 1280.2 66.8128 1281.03 66.8128C1281.83 66.8128 1282.54 66.6305 1283.17 66.266C1283.81 65.9014 1284.27 65.3633 1284.55 64.6516L1285.09 66.6045C1284.78 67.4203 1284.22 68.0539 1283.4 68.5053C1282.6 68.9566 1281.59 69.1823 1280.35 69.1823ZM1279.57 53.1947L1283.09 49.6275H1286.92L1282.39 53.1947H1279.57ZM1299.87 54.9393C1300.98 54.9393 1301.97 55.1563 1302.84 55.5903C1303.72 56.0242 1304.42 56.6926 1304.92 57.5952C1305.42 58.4805 1305.67 59.6262 1305.67 61.0323V69H1302.42V61.4489C1302.42 60.2164 1302.12 59.2964 1301.53 58.6888C1300.96 58.0813 1300.15 57.7775 1299.11 57.7775C1298.35 57.7775 1297.67 57.9337 1297.08 58.2462C1296.49 58.5586 1296.03 59.0273 1295.7 59.6522C1295.39 60.2598 1295.23 61.0323 1295.23 61.9697V69H1291.98V55.0955H1295.08V58.8451L1294.53 57.6994C1295.02 56.8141 1295.72 56.1371 1296.64 55.6684C1297.58 55.1823 1298.65 54.9393 1299.87 54.9393ZM1318.56 63.9225C1317.97 63.9225 1317.47 63.7229 1317.05 63.3236C1316.64 62.9244 1316.43 62.3949 1316.43 61.7353C1316.43 61.093 1316.64 60.5723 1317.05 60.173C1317.47 59.7738 1317.97 59.5741 1318.56 59.5741C1319.19 59.5741 1319.7 59.7738 1320.1 60.173C1320.5 60.5723 1320.7 61.093 1320.7 61.7353C1320.7 62.3949 1320.5 62.9244 1320.1 63.3236C1319.7 63.7229 1319.19 63.9225 1318.56 63.9225ZM1335.01 59.1575H1344.09V62.0217H1335.01V59.1575ZM1335.29 69H1331.91V50.7732H1345.21V53.6114H1335.29V69ZM1353.68 69.1823C1352.5 69.1823 1351.46 68.9653 1350.55 68.5313C1349.65 68.08 1348.95 67.403 1348.44 66.5003C1347.94 65.5803 1347.69 64.4259 1347.69 63.0372V55.0955H1350.94V62.5946C1350.94 63.8444 1351.22 64.7818 1351.78 65.4067C1352.35 66.0143 1353.16 66.3181 1354.2 66.3181C1354.96 66.3181 1355.62 66.1618 1356.18 65.8494C1356.75 65.5369 1357.19 65.0682 1357.51 64.4433C1357.84 63.8184 1358 63.0459 1358 62.1259V55.0955H1361.25V69H1358.16V65.2505L1358.7 66.3962C1358.23 67.2988 1357.55 67.9932 1356.65 68.4792C1355.74 68.9479 1354.75 69.1823 1353.68 69.1823ZM1365.52 69V49.6796H1368.77V69H1365.52ZM1373.04 69V49.6796H1376.3V69H1373.04ZM1384.87 69.1823C1383.7 69.1823 1382.58 69.0347 1381.51 68.7396C1380.45 68.4272 1379.61 68.0539 1378.98 67.62L1380.23 65.1463C1380.86 65.5456 1381.6 65.8754 1382.47 66.1358C1383.34 66.3962 1384.21 66.5264 1385.07 66.5264C1386.1 66.5264 1386.84 66.3875 1387.29 66.1097C1387.76 65.832 1387.99 65.4588 1387.99 64.9901C1387.99 64.6082 1387.83 64.3218 1387.52 64.1308C1387.21 63.9225 1386.8 63.7663 1386.3 63.6621C1385.79 63.558 1385.23 63.4625 1384.61 63.3757C1384 63.2889 1383.38 63.1761 1382.76 63.0372C1382.15 62.881 1381.59 62.664 1381.09 62.3863C1380.59 62.0912 1380.18 61.7006 1379.87 61.2145C1379.55 60.7285 1379.4 60.0862 1379.4 59.2877C1379.4 58.4024 1379.65 57.6386 1380.15 56.9963C1380.66 56.3367 1381.36 55.8333 1382.26 55.4861C1383.18 55.1216 1384.27 54.9393 1385.52 54.9393C1386.45 54.9393 1387.4 55.0435 1388.36 55.2518C1389.31 55.4601 1390.1 55.7552 1390.72 56.1371L1389.47 58.6107C1388.82 58.2115 1388.15 57.9424 1387.47 57.8035C1386.81 57.6473 1386.15 57.5692 1385.49 57.5692C1384.5 57.5692 1383.76 57.7167 1383.28 58.0118C1382.81 58.3069 1382.57 58.6802 1382.57 59.1315C1382.57 59.5481 1382.73 59.8606 1383.04 60.0689C1383.36 60.2772 1383.76 60.4421 1384.27 60.5636C1384.77 60.6851 1385.33 60.7893 1385.93 60.876C1386.56 60.9455 1387.17 61.0583 1387.78 61.2145C1388.39 61.3708 1388.95 61.5878 1389.45 61.8655C1389.97 62.1259 1390.39 62.4991 1390.7 62.9852C1391.01 63.4712 1391.17 64.1048 1391.17 64.8859C1391.17 65.7539 1390.91 66.509 1390.39 67.1513C1389.88 67.7936 1389.16 68.297 1388.22 68.6615C1387.29 69.0087 1386.17 69.1823 1384.87 69.1823ZM1399.2 69.1823C1397.68 69.1823 1396.5 68.7917 1395.66 68.0105C1394.83 67.212 1394.41 66.0403 1394.41 64.4954V52.023H1397.67V64.4173C1397.67 65.0769 1397.83 65.589 1398.16 65.9535C1398.51 66.3181 1398.99 66.5003 1399.59 66.5003C1400.32 66.5003 1400.93 66.3094 1401.42 65.9275L1402.33 68.2449C1401.95 68.5573 1401.48 68.7917 1400.92 68.9479C1400.37 69.1042 1399.79 69.1823 1399.2 69.1823ZM1392.12 57.8035V55.1997H1401.39V57.8035H1392.12ZM1413.57 69V66.1879L1413.39 65.589V60.6677C1413.39 59.713 1413.1 58.9753 1412.53 58.4545C1411.96 57.9164 1411.09 57.6473 1409.93 57.6473C1409.15 57.6473 1408.37 57.7688 1407.61 58.0118C1406.86 58.2549 1406.23 58.5934 1405.71 59.0273L1404.43 56.6578C1405.18 56.085 1406.07 55.6597 1407.09 55.382C1408.13 55.0869 1409.21 54.9393 1410.32 54.9393C1412.33 54.9393 1413.89 55.4254 1414.98 56.3975C1416.09 57.3522 1416.65 58.8364 1416.65 60.85V69H1413.57ZM1409.2 69.1823C1408.16 69.1823 1407.25 69.0087 1406.46 68.6615C1405.68 68.297 1405.08 67.8022 1404.64 67.1773C1404.22 66.535 1404.02 65.8146 1404.02 65.0161C1404.02 64.235 1404.2 63.532 1404.56 62.907C1404.95 62.2821 1405.56 61.7874 1406.41 61.4229C1407.26 61.0583 1408.39 60.876 1409.8 60.876H1413.83V63.0372H1410.03C1408.92 63.0372 1408.17 63.2195 1407.79 63.584C1407.41 63.9312 1407.22 64.3652 1407.22 64.8859C1407.22 65.4761 1407.45 65.9448 1407.92 66.292C1408.39 66.6392 1409.04 66.8128 1409.88 66.8128C1410.67 66.8128 1411.39 66.6305 1412.01 66.266C1412.65 65.9014 1413.11 65.3633 1413.39 64.6516L1413.94 66.6045C1413.62 67.4203 1413.06 68.0539 1412.24 68.5053C1411.45 68.9566 1410.43 69.1823 1409.2 69.1823ZM1427.23 69.1823C1425.77 69.1823 1424.47 68.8785 1423.32 68.2709C1422.19 67.646 1421.31 66.7954 1420.67 65.7192C1420.02 64.6429 1419.7 63.4191 1419.7 62.0478C1419.7 60.6591 1420.02 59.4353 1420.67 58.3764C1421.31 57.3001 1422.19 56.4582 1423.32 55.8507C1424.47 55.2431 1425.77 54.9393 1427.23 54.9393C1428.58 54.9393 1429.77 55.2171 1430.79 55.7725C1431.84 56.3107 1432.63 57.1092 1433.16 58.1681L1430.66 59.6262C1430.25 58.9666 1429.74 58.4805 1429.13 58.1681C1428.54 57.8556 1427.9 57.6994 1427.2 57.6994C1426.4 57.6994 1425.68 57.873 1425.04 58.2201C1424.4 58.5673 1423.89 59.0707 1423.53 59.7304C1423.17 60.3726 1422.98 61.1451 1422.98 62.0478C1422.98 62.9504 1423.17 63.7316 1423.53 64.3912C1423.89 65.0335 1424.4 65.5282 1425.04 65.8754C1425.68 66.2226 1426.4 66.3962 1427.2 66.3962C1427.9 66.3962 1428.54 66.2399 1429.13 65.9275C1429.74 65.615 1430.25 65.129 1430.66 64.4693L1433.16 65.9275C1432.63 66.969 1431.84 67.7762 1430.79 68.349C1429.77 68.9045 1428.58 69.1823 1427.23 69.1823ZM1438.51 65.9014L1438.58 61.8134L1445.85 55.0955H1449.75L1443.58 61.2927L1441.87 62.7248L1438.51 65.9014ZM1435.85 69V49.6796H1439.11V69H1435.85ZM1446.34 69L1441.27 62.7248L1443.32 60.1209L1450.3 69H1446.34ZM1459.91 69V50.7732H1467.88C1469.86 50.7732 1471.6 51.1551 1473.09 51.9189C1474.58 52.6827 1475.74 53.7416 1476.58 55.0955C1477.41 56.4495 1477.83 58.0466 1477.83 59.8866C1477.83 61.7093 1477.41 63.3063 1476.58 64.6776C1475.74 66.0316 1474.58 67.0905 1473.09 67.8543C1471.6 68.6181 1469.86 69 1467.88 69H1459.91ZM1463.3 66.1358H1467.72C1469.1 66.1358 1470.28 65.8754 1471.27 65.3546C1472.27 64.8339 1473.04 64.1048 1473.58 63.1674C1474.14 62.23 1474.42 61.1364 1474.42 59.8866C1474.42 58.6194 1474.14 57.5258 1473.58 56.6058C1473.04 55.6684 1472.27 54.9393 1471.27 54.4185C1470.28 53.8978 1469.1 53.6374 1467.72 53.6374H1463.3V66.1358ZM1487.65 69.1823C1486.1 69.1823 1484.75 68.8785 1483.59 68.2709C1482.44 67.646 1481.55 66.7954 1480.9 65.7192C1480.28 64.6429 1479.97 63.4191 1479.97 62.0478C1479.97 60.6591 1480.27 59.4353 1480.88 58.3764C1481.5 57.3001 1482.35 56.4582 1483.43 55.8507C1484.52 55.2431 1485.76 54.9393 1487.15 54.9393C1488.51 54.9393 1489.71 55.2344 1490.77 55.8246C1491.83 56.4148 1492.66 57.248 1493.27 58.3243C1493.88 59.4005 1494.18 60.6677 1494.18 62.1259C1494.18 62.2648 1494.17 62.421 1494.16 62.5946C1494.16 62.7682 1494.15 62.9331 1494.13 63.0893H1482.54V60.9281H1492.41L1491.14 61.6051C1491.15 60.8066 1490.99 60.1036 1490.64 59.496C1490.3 58.8885 1489.82 58.4111 1489.21 58.0639C1488.62 57.7167 1487.93 57.5431 1487.15 57.5431C1486.35 57.5431 1485.65 57.7167 1485.04 58.0639C1484.45 58.4111 1483.99 58.8971 1483.64 59.5221C1483.31 60.1296 1483.14 60.85 1483.14 61.6832V62.204C1483.14 63.0372 1483.33 63.775 1483.72 64.4173C1484.1 65.0595 1484.64 65.5543 1485.33 65.9014C1486.02 66.2486 1486.82 66.4222 1487.73 66.4222C1488.51 66.4222 1489.21 66.3007 1489.84 66.0577C1490.46 65.8146 1491.02 65.4328 1491.5 64.912L1493.25 66.9169C1492.62 67.646 1491.83 68.2102 1490.88 68.6094C1489.94 68.9913 1488.86 69.1823 1487.65 69.1823ZM1500.75 69L1494.79 55.0955H1498.18L1503.3 67.3596H1501.64L1506.95 55.0955H1510.07L1504.11 69H1500.75Z" fill="white"/>
</svg>
